<?xml version="1.0" encoding="UTF-8" standalone="no"?>
<!-- Created with Inkscape (http://www.inkscape.org/) -->

<svg
   version="1.1"
   id="svg1"
   width="347"
   height="360"
   viewBox="0 0 347 360"
   sodipodi:docname="sutorus_logo.svg"
   inkscape:export-filename="sutorus_logo.png"
   inkscape:export-xdpi="96"
   inkscape:export-ydpi="96"
   inkscape:version="1.4.2 (f4327f4, 2025-05-13)"
   xmlns:inkscape="http://www.inkscape.org/namespaces/inkscape"
   xmlns:sodipodi="http://sodipodi.sourceforge.net/DTD/sodipodi-0.dtd"
   xmlns="http://www.w3.org/2000/svg"
   xmlns:svg="http://www.w3.org/2000/svg">
  <sodipodi:namedview
     id="namedview1"
     pagecolor="#ffffff"
     bordercolor="#000000"
     borderopacity="0.25"
     inkscape:showpageshadow="2"
     inkscape:pageopacity="0.0"
     inkscape:pagecheckerboard="0"
     inkscape:deskcolor="#d1d1d1"
     inkscape:zoom="2.3864854"
     inkscape:cx="152.10653"
     inkscape:cy="198.40892"
     inkscape:window-width="2560"
     inkscape:window-height="1417"
     inkscape:window-x="1912"
     inkscape:window-y="-8"
     inkscape:window-maximized="1"
     inkscape:current-layer="svg1" />
  <defs
     id="defs1" />
  <g
     id="g1"
     style="fill:#ffffff"
     transform="translate(-1.676105)"
     inkscape:export-filename="sutorus_logo_white.png"
     inkscape:export-xdpi="96"
     inkscape:export-ydpi="96">
    <path
       style="fill:#ffffff"
       d="m 170.82396,326.07407 c -0.8292,-1.925 -3.48678,-8.20514 -5.90574,-13.95586 l -4.39811,-10.45586 -9.88547,-1.74426 c -28.37932,-5.00742 -49.53707,-15.98975 -70.017761,-36.34402 -20.31221,-20.18683 -31.72661,-41.37465 -36.85566,-68.41278 -0.8623,-4.54572 -1.79549,-8.6333 -2.07374,-9.08352 -0.27825,-0.45021 -3.99259,-2.25299 -8.2541,-4.00616 -13.18897,-5.42591 -19.24819,-8.24275 -19.24819,-8.94819 0,-0.37263 6.25542,-3.28532 13.90093,-6.47263 l 13.90092,-5.79511 1.17222,-8.01681 C 51.556519,95.409646 93.927699,51.235946 150.12811,41.319436 l 10.37461,-1.83059 5.42821,-12.957386 c 2.98551,-7.126563 5.75354,-13.299359 6.15117,-13.717326 0.39764,-0.417966 3.31494,5.457491 6.48289,13.056571 l 5.75992,13.81651 7.68014,1.135889 c 16.34084,2.416803 38.18811,10.73409 50.96818,19.403668 32.0046,21.710853 54.04898,57.186668 57.96093,93.275968 l 0.75104,6.92867 13.565,5.57133 c 7.46076,3.06423 13.68085,5.98395 13.82243,6.48828 0.14159,0.50432 -5.65568,3.48233 -12.88282,6.61781 -7.22713,3.13548 -13.5008,6.09785 -13.94147,6.58305 -0.44067,0.4852 -1.53977,5.0219 -2.44244,10.08155 -2.04452,11.46004 -6.44301,24.12142 -12.40725,35.71525 -18.89684,36.73334 -57.86538,64.32637 -97.99027,69.3854 l -5.55181,0.69999 -5.76249,14 -5.76248,14 z m 5.7445,-21.30291 3.69964,-8.30291 9.5628,-1.2078 c 9.29438,-1.17391 28.35429,-6.67876 28.35429,-8.18925 0,-0.94335 -14.40613,-4.55643 -41.79183,-10.48146 -44.20723,-9.56444 -44.64155,-10.90531 -6.20817,-19.16663 33.27217,-7.1519 45.57976,-11.83617 47.79498,-18.19074 2.42382,-6.95298 -5.6502,-12.36292 -25.04982,-16.78445 -39.61715,-9.02949 -39.77244,-9.148 -18.77758,-14.33109 20.36967,-5.02874 20.49222,-4.88201 -12.10353,-14.49152 -10.31853,-3.042 -13.43669,-5.17163 -12.39192,-8.46341 1.02007,-3.21397 6.79591,-5.47721 22.02787,-8.63155 7.15,-1.48067 14.54671,-3.32629 16.43713,-4.10137 2.94921,-1.20918 3.23312,-1.60158 2,-2.76425 -0.79042,-0.74526 -3.91213,-2.11144 -6.93713,-3.03596 -10.54108,-3.22161 -14,-4.72926 -14,-6.10223 0,-1.82924 2.31477,-2.96075 9.15721,-4.47623 l 5.6572,-1.25297 0.66739,-4.45047 c 0.51535,-3.43656 0.28635,-4.87152 -1.00516,-6.29862 -1.60551,-1.77407 -1.21823,-4.55055 0.48768,-3.49624 0.45436,0.28081 1.08414,-0.16184 1.39951,-0.98369 0.69579,-1.81319 3.30538,-1.97685 3.89462,-0.24425 0.23381,0.6875 -0.0619,2.0375 -0.65721,3 -0.79274,1.28176 -0.7504,2.2815 0.15822,3.73643 0.6823,1.09254 1.24054,2.87018 1.24054,3.95031 0,1.08013 0.71384,2.36336 1.5863,2.85162 1.15047,0.64383 -0.97882,1.55041 -7.75,3.29969 -12.17224,3.14459 -12.20513,4.46208 -0.19748,7.91118 20.3773,5.85321 18.85752,9.38655 -6.50284,15.11836 -14.06567,3.17905 -19.71229,5.65891 -17.63598,7.74529 0.55,0.55267 8.12768,3.06528 16.83929,5.58359 8.71161,2.5183 16.75633,5.06952 17.87717,5.66937 2.37635,1.27178 4.0906,-0.44442 3.38433,-3.38817 -0.23387,-0.97478 0.27457,-3.17509 1.12987,-4.88958 l 1.5551,-3.11726 1.18999,2.88958 c 0.6545,1.58927 1.00892,3.59602 0.7876,4.45944 -0.22131,0.86343 0.30389,2.15603 1.16713,2.87245 2.10065,1.74339 1.99487,3.14263 -0.18048,2.38723 -1.40189,-0.48681 -1.31086,-0.14642 0.45761,1.71122 2.0223,2.12425 2.44201,2.2038 5,0.94769 2.69298,-1.32239 2.71229,-1.38468 0.54239,-1.74938 -2.78574,-0.46821 -2.89053,-1.82589 -0.25,-3.23906 2.3135,-1.23815 2.69012,-4 0.54546,-4 -1.00112,0 -0.6894,-0.76515 1,-2.45455 2.85046,-2.85045 3.14861,-4.54545 0.79956,-4.54545 -1.49028,0 -1.50326,-0.17417 -0.13049,-1.75 0.83847,-0.9625 1.99769,-3.1 2.57604,-4.75 0.57835,-1.65 1.08707,-2.31834 1.13049,-1.48519 0.0434,0.83314 0.96263,3.16358 2.0427,5.17875 1.42071,2.65073 1.62811,3.78397 0.75,4.09801 -0.80373,0.28744 -0.39479,1.32495 1.21056,3.07125 1.99259,2.16755 2.12615,2.63718 0.75,2.63718 -2.23383,0 -2.11356,1.29251 0.32568,3.5 2.3368,2.11477 2.64889,3.96298 0.53203,3.15066 -2.83293,-1.08709 -2.50634,1.19317 0.53775,3.75459 2.45239,2.06356 3.46548,2.37865 5.00268,1.55597 2.58237,-1.38204 2.44395,-2.96122 -0.25955,-2.96122 -2.1306,0 -2.11769,-0.0724 0.5,-2.80472 2.98184,-3.11237 3.47732,-4.7125 1.18709,-3.83366 -2.12789,0.81655 -1.85809,-0.72757 0.5,-2.86162 2.33466,-2.11283 2.57585,-3.5 0.60857,-3.5 -1.02056,0 -0.68815,-1.3189 1.2471,-4.94816 2.31151,-4.33488 2.73267,-4.69371 3.398,-2.89516 0.4177,1.12915 1.72399,3.40756 2.90286,5.06315 l 2.14342,3.01014 -2.14997,-0.68237 c -3.01011,-0.95537 -2.68207,0.30537 1.10002,4.22766 l 3.25,3.37049 -2.85766,-0.70831 c -2.67092,-0.66201 -2.78378,-0.57025 -1.72708,1.40421 0.62182,1.16188 2.02027,2.58866 3.10766,3.17061 2.58577,1.38386 2.56802,3.31007 -0.0229,2.48774 -2.6141,-0.82969 -2.59814,1.10951 0.0207,2.51106 2.18105,1.16726 3.25293,0.79547 6.72933,-2.33414 2.78715,-2.50911 2.90317,-4.08099 0.25,-3.38717 -2.60336,0.68079 -2.52261,0.12005 0.5,-3.47212 3.05248,-3.62766 3.25379,-5.29142 0.45931,-3.79585 -1.78211,0.95375 -1.65539,0.40941 1,-4.29567 1.67238,-2.96331 3.07115,-6.25144 3.10837,-7.30697 0.0555,-1.5731 0.26289,-1.46837 1.15031,0.58086 0.59544,1.375 1.91499,4.20135 2.93232,6.28079 2.23602,4.57044 2.25677,4.81265 0.34969,4.08083 -2.27709,-0.8738 -1.79882,1.12979 1.0889,4.56165 l 2.58889,3.07673 h -2.2971 c -2.08216,0 -1.88386,0.42106 2.11931,4.5 l 4.41642,4.5 h -3.33065 c -2.89188,0 -3.16155,0.20376 -2.04702,1.54668 0.70599,0.85067 2.50879,2.41907 4.00622,3.48534 2.70208,1.92405 2.74231,1.92315 5.33881,-0.11926 3.10014,-2.43857 3.43774,-4.30828 0.61622,-3.41276 -3.11887,0.98989 -2.45252,-1.65094 1.25,-4.95392 3.24004,-2.89041 3.24282,-2.90108 0.90453,-3.48129 l -2.34548,-0.58201 2.09548,-1.89638 c 2.18186,-1.97456 2.81485,-4.5864 1.11152,-4.5864 -0.54117,0 -0.13735,-1.6875 0.89737,-3.75 1.03473,-2.0625 2.11698,-4.425 2.40501,-5.25 0.3685,-1.05551 0.54818,-0.90735 0.60636,0.5 0.0455,1.1 0.97439,3.4625 2.06425,5.25 1.61687,2.65185 1.7082,3.25 0.49627,3.25 -2.1402,0 -1.84818,1.00165 1.26469,4.33792 2.62921,2.8179 2.65117,2.92325 0.5,2.39834 -3.29706,-0.80452 -2.75245,1.03377 1.44542,4.87887 l 3.69542,3.38487 -3.44542,0.041 -3.44542,0.041 4.37861,3.95899 c 2.40824,2.17744 3.78074,3.95899 3.05,3.95899 -0.97557,0 -1.0329,0.29571 -0.21574,1.11287 0.61208,0.61207 1.59226,0.81658 2.17819,0.45446 1.74574,-1.07893 7.07133,-19.39472 8.4325,-29.0011 l 1.26587,-8.93377 8.23617,-3.47358 c 4.5299,-1.91047 8.09569,-3.89504 7.92398,-4.41015 -0.1717,-0.51512 -4.0106,-2.54567 -8.53088,-4.51235 l -8.21869,-3.57578 v -5.21984 c 0,-11.871 -5.12097,-30.65731 -12.25042,-44.94076 -6.03934,-12.0995 -12.35645,-21.062674 -21.74959,-30.859913 -19.7676,-20.618041 -42.67981,-32.776044 -70.63972,-37.483859 -6.67013,-1.123099 -11.04376,-2.34754 -11.54499,-3.232136 -0.4438,-0.783249 -2.33043,-4.799088 -4.19252,-8.924088 l -3.3856,-7.5 -4.22262,9.132514 -4.22261,9.132514 -8.84,1.133684 c -17.46312,2.239555 -36.82341,9.569844 -52.2719,19.791442 -3.949021,2.612896 -11.559711,8.986899 -16.912651,14.164452 -21.32252,20.62392 -34.00893,46.02047 -38.01857,76.10829 l -1.24882,9.37099 -8.25,3.47738 c -4.5375,1.91256 -8.25,3.78607 -8.25,4.16335 0,0.37729 3.7125,2.29934 8.25,4.27123 l 8.25,3.58526 1.6322,9.4233 c 1.88813,10.90091 3.96067,18.44062 6.88829,25.05899 2.1012,4.75012 3.60737,5.65874 5.77951,3.4866 1.91243,-1.91243 1.40878,-2.56233 -1.55,-2.00013 -2.48405,0.47199 -2.61533,0.35953 -1.3575,-1.16284 0.76588,-0.92695 1.12833,-1.94954 0.80545,-2.27242 -0.32287,-0.32287 0.738,-1.702 2.3575,-3.06472 3.47377,-2.92299 3.74306,-4.29989 0.84096,-4.29989 -1.9293,0 -1.83264,-0.30859 1.16665,-3.7246 3.23148,-3.68045 3.24342,-3.73092 1.00811,-4.2586 l -2.26212,-0.53402 2.09548,-1.89638 c 2.18262,-1.97524 2.81467,-4.5864 1.11017,-4.5864 -0.54191,0 -0.0936,-1.4625 0.99626,-3.25 1.08986,-1.7875 2.02383,-4.15 2.07549,-5.25 0.0553,-1.17798 0.50289,-0.56146 1.08894,1.5 0.54725,1.925 1.70141,4.2875 2.5648,5.25 1.42992,1.59407 1.42233,1.75 -0.0852,1.75 -2.19964,0 -2.08661,1.18156 0.41759,4.36514 1.71808,2.18418 1.8036,2.63486 0.5,2.63486 -2.42848,0 -1.87568,1.71503 1.52855,4.74228 l 3.10113,2.75772 -2.84275,0.50837 -2.84276,0.50837 2.24162,2.24163 c 2.79049,2.79048 5.21366,2.83807 8.60678,0.16905 3.61884,-2.84659 3.36699,-4.24012 -0.61515,-3.40368 l -3.25,0.68264 4.25,-4.39104 c 4.76803,-4.92626 5.29114,-6.28056 2.02559,-5.24412 -2.13701,0.67827 -2.11737,0.56566 0.5,-2.86589 3.28701,-4.30949 3.38949,-5.05119 0.57444,-4.15773 l -2.14997,0.68237 2.28197,-3.20473 c 1.25509,-1.76261 2.86747,-5.07685 3.58308,-7.36499 0.74783,-2.39119 1.32955,-3.26682 1.368,-2.05919 0.0368,1.15558 1.17923,4.19308 2.53876,6.75 1.93538,3.63995 2.15242,4.64894 1,4.64894 -2.16042,0 -1.8096,1.44517 1.22678,5.05371 2.55063,3.03125 2.57805,3.16888 0.5,2.50934 -3.03314,-0.96269 -2.75072,0.53385 0.7301,3.86869 l 2.928751,2.80592 3.07125,-2.18693 c 3.71286,-2.64379 3.98938,-4.31927 0.57125,-3.46138 -3.20786,0.80513 -3.14647,0.38375 0.5,-3.43194 3.57436,-3.74022 3.81682,-5.16949 0.75,-4.42115 -2.15116,0.52491 -2.1292,0.41956 0.5,-2.39834 2.99481,-3.20973 3.63445,-5.61455 1.25,-4.69955 -1.91566,0.73511 -1.95024,-1.01981 -0.0512,-2.59592 0.79687,-0.66134 1.97256,-2.78929 2.61265,-4.72878 l 1.1638,-3.52635 1.78322,3.98297 c 0.98078,2.19063 2.28009,4.29004 2.88736,4.66535 1.84659,1.14126 1.23314,2.41086 -0.89588,1.85411 -2.72737,-0.71323 -2.51266,0.87999 0.5,3.71025 2.79739,2.628 3.27536,4.23476 1,3.36162 -2.20856,-0.8475 -1.86473,1.99833 0.5,4.13838 2.59198,2.3457 2.53449,3.5 -0.17431,3.5 h -2.17431 l 2.34862,2.5 c 2.74079,2.91743 4.63467,3.14059 7.17126,0.84501 2.56436,-2.32071 2.27936,-3.13763 -0.92126,-2.64071 l -2.75,0.42696 2.75,-2.14904 c 2.9859,-2.33338 3.65048,-4.98222 1.25,-4.98222 -1.16666,0 -1.05555,-0.44445 0.5,-2 2.08019,-2.08018 2.53482,-3.59564 1.25,-4.16667 -0.4125,-0.18333 0.15217,-2.13333 1.25481,-4.33333 l 2.00481,-4 2.04339,4.14117 c 1.35285,2.74173 1.60468,3.97283 0.74519,3.64302 -1.93092,-0.74097 -1.57117,1.04568 0.7018,3.48543 2.37638,2.55074 2.57027,3.66319 0.5,2.86875 -2.57193,-0.98694 -1.67344,2.06541 1.25,4.24654 2.65971,1.98436 2.67613,2.05277 0.5,2.08341 -2.95996,0.0417 -2.85641,1.58823 0.24228,3.61858 2.57533,1.68742 5.50772,1.33469 5.50772,-0.66251 0,-0.6261 -0.675,-0.87935 -1.5,-0.56277 -2.14103,0.8216 -1.85278,-0.73238 0.53703,-2.89513 1.12036,-1.01391 1.87482,-2.54616 1.67658,-3.40499 -0.49335,-2.13731 2.46782,-8.06734 3.02682,-6.0615 0.22992,0.825 0.68073,2.175 1.0018,3 0.32108,0.825 0.63886,3.39093 0.70617,5.70206 0.16103,5.52832 1.20002,6.36374 2.8965,2.32899 l 1.3756,-3.27159 1.08773,3.12027 c 1.33974,3.84316 2.49309,3.94914 4.11995,0.37856 l 1.2492,-2.74171 1.47847,3.49171 c 1.41269,3.33636 1.54222,3.40535 2.91131,1.55058 0.78807,-1.06762 1.43284,-2.30512 1.43284,-2.75 0,-1.8885 1.83538,-0.60094 2.41065,1.69113 0.72366,2.88329 3.05927,3.31541 4.05379,0.75 0.63886,-1.64798 0.75758,-1.64245 2.03663,0.0949 1.02641,1.3942 2.08504,1.68527 4.33338,1.19145 1.66746,-0.36624 3.24945,-0.20963 3.59922,0.3563 0.6971,1.12794 -2.22246,2.06464 -17.18154,5.51252 -10.47467,2.41428 -15.65475,4.797 -15.01931,6.90855 0.66028,2.1941 9.1692,5.59672 24.26718,9.70418 17.61284,4.79164 23.86549,7.53691 24.31199,10.67435 0.56783,3.99004 -6.89016,6.45255 -32.72246,10.80446 -35.69405,6.0133 -52.41147,11.68057 -61.21516,20.75217 l -4.066501,4.19025 2.99908,2.67968 c 10.777121,9.62935 35.440331,19.45545 55.189751,21.98821 l 8.88476,1.13942 1.47762,3.62677 c 3.38252,8.30225 5.78234,13.12678 6.52953,13.12678 0.43726,0 2.45986,-3.73631 4.49466,-8.30291 z M 65.855699,137.51779 c 15.41565,-16.71542 20.14204,-21.03117 21.52152,-19.65169 2.1946,2.19459 3.9556,1.28761 13.678251,-7.04486 5.29635,-4.53905 10.44161,-8.88939 11.43391,-9.66741 1.63492,-1.281866 2.40381,-0.82028 8.19581,4.92024 5.65747,5.60717 6.5826,6.17634 8.05413,4.95508 0.91437,-0.75886 6.42858,-6.7967 12.25381,-13.417406 7.46876,-8.488692 11.39289,-12.185082 13.31013,-12.53767 1.77235,-0.325943 5.56352,-3.546002 10.89056,-9.25 4.49447,-4.8125 8.76244,-8.75 9.48438,-8.75 0.72194,0 6.23264,5.152147 12.246,11.449216 8.6206,9.027309 11.36555,11.336202 12.97639,10.914959 1.62071,-0.423825 3.48244,1.188596 9.00695,7.800785 10.16793,12.169826 9.34614,11.801176 15.26348,6.846896 l 5.02101,-4.203826 5.74658,5.006836 c 3.16062,2.75376 7.32158,6.66109 9.24658,8.68296 1.925,2.02187 4.7375,4.56762 6.25,5.65724 l 2.75,1.98112 3.14738,-2.24113 3.14737,-2.24113 3.5,3.92303 c 1.92501,2.15767 8.1929,8.98554 13.92865,15.17304 5.73576,6.1875 10.19108,11.25 9.90073,11.25 -0.29035,0 -6.06206,-4.71983 -12.82602,-10.4885 -6.76396,-5.76868 -12.71596,-10.3544 -13.22666,-10.19049 -2.12711,0.6827 -3.07098,3.64946 -1.80568,5.67553 1.65411,2.64865 1.15151,2.54113 -4.30898,-0.92181 -2.53697,-1.6089 -6.4901,-3.22866 -8.78473,-3.59946 -2.29463,-0.3708 -6.1541,-1.53489 -8.57659,-2.58686 -2.4225,-1.05197 -4.59754,-1.71967 -4.83343,-1.48378 -0.53702,0.53701 7.32607,8.50349 15.23796,15.43832 6.48083,5.68049 5.83214,5.41277 -7.76465,-3.2046 -6.70835,-4.25161 -22.17374,-12.63835 -23.30548,-12.63835 -0.47699,0 1.81865,2.752 5.10144,6.11556 6.21891,6.37193 5.32275,6.33182 -4.80668,-0.21515 -3.31909,-2.14523 -6.57245,-3.90041 -7.22969,-3.90041 -0.65725,0 -3.54339,-2.7 -6.41364,-6 -2.87025,-3.3 -5.70526,-6 -6.30002,-6 -0.59476,0 -6.05758,3.65848 -12.13959,8.12995 -6.08201,4.47147 -10.40199,7.19987 -9.59994,6.06311 9.49768,-13.46145 9.39277,-13.26765 8.20862,-15.16376 -0.79924,-1.27979 -0.86838,-2.87443 -0.2223,-5.12717 0.51575,-1.79832 0.72721,-3.48019 0.46991,-3.73749 -0.2573,-0.2573 -2.94961,1.17999 -5.9829,3.19398 -3.03329,2.01399 -5.51508,3.47262 -5.51508,3.24138 0,-0.23123 1.34965,-3.27333 2.99921,-6.76021 2.73771,-5.787006 3.868,-10.839786 2.42484,-10.839786 -0.31678,0 -3.34773,2.132832 -6.73545,4.73962 l -6.15949,4.739616 2.92428,-4.989616 c 1.60836,-2.744288 3.51154,-6.11462 4.22929,-7.48962 1.48138,-2.837897 1.79587,-13 0.40231,-13 -1.57796,0 -9.10123,9.208273 -9.73606,11.916668 -1.10712,4.723324 -7.38499,15.725948 -10.93759,19.169258 l -3.50394,3.39615 3.5463,-7.6755 c 3.68166,-7.968464 4.17576,-9.806574 2.6361,-9.806574 -1.32357,0 -10.6537,7.539284 -12.37973,10.003544 -0.80907,1.1551 -3.8195,4.56086 -6.68985,7.56835 -5.13317,5.37842 -6.02116,8.4281 -2.45403,8.4281 1.71238,0 19.73244,15.03471 18.95357,15.81357 -0.24801,0.24801 -3.85482,-1.85858 -8.01513,-4.68132 -4.16031,-2.82274 -7.9127,-5.13225 -8.33864,-5.13225 -0.42593,0 -2.77503,1.25616 -5.22021,2.79148 -2.44517,1.53531 -6.24578,3.85548 -8.44578,5.15593 l -4,2.36444 4.93971,-5.13288 c 2.71685,-2.82309 4.68161,-5.39099 4.36614,-5.70646 -0.62712,-0.62712 -12.8468,5.97809 -26.57203,14.36323 l -8.733821,5.33573 6,-5.32155 c 6.963361,-6.17597 14.473921,-14.01 14.489341,-15.11334 0.006,-0.41988 -1.56434,-0.0824 -3.48934,0.75 -1.925,0.83238 -5.16788,2.23326 -7.20639,3.11308 l -3.706401,1.59965 3.677071,-4.07007 c 3.06482,-3.3924 9.73572,-14.76718 9.73572,-16.60073 0,-2.0249 -3.80959,1.18944 -15.669921,13.22149 -7.45457,7.5625 -13.05343,12.76708 -12.44192,11.56574 1.45554,-2.85946 1.42207,-6.31574 -0.0612,-6.31574 -0.64515,0 -6.83265,4.58717 -13.75,10.19372 l -12.577,10.19372 z M 230.23253,116.69856 c -0.9649,-2.53788 -0.89025,-2.62448 1.72202,-1.99766 l 2.73064,0.65522 -2.25,-2.45548 c -1.2375,-1.35051 -2.25,-3.18741 -2.25,-4.08201 0,-2.87235 -2.13586,-3.06324 -4.77255,-0.42655 l -2.56458,2.56458 3.78043,4.61351 c 4.07821,4.97692 5.20088,5.32842 3.60404,1.12839 z m 37.51153,104.80738 c 1.85811,-1.50106 1.82351,-1.54302 -0.80887,-0.98095 -1.5125,0.32295 -2.75,0.17675 -2.75,-0.32488 0,-1.13405 -3.07259,-2.38678 -3.87818,-1.58119 -0.55365,0.55365 3.71253,4.38419 4.93705,4.43291 0.30738,0.0122 1.43238,-0.68342 2.5,-1.54589 z m 18.80276,0.0681 c 0.38631,-1.00672 -0.0449,-1.5 -1.31122,-1.5 -1.03776,0 -2.71114,-0.30131 -3.71862,-0.66957 -1.73048,-0.63253 -1.72644,-0.54958 0.0732,1.5 2.22202,2.53063 4.14291,2.79011 4.95664,0.66957 z m -205.561631,-3.7 c 1.90137,-1.90137 1.39589,-2.97521 -0.83777,-1.77979 -1.12077,0.59982 -3.02974,0.77575 -4.24216,0.39094 -1.95697,-0.62112 -2.05122,-0.5151 -0.83978,0.9446 1.60618,1.93533 4.23161,2.13235 5.91971,0.44425 z m 161.200001,0.75901 c 0,-0.24254 -0.45,-0.71909 -1,-1.05901 -0.55,-0.33992 -1,-0.14148 -1,0.44098 0,0.58246 0.45,1.05902 1,1.05902 0.55,0 1,-0.19844 1,-0.44099 z m -138.5,-3.55901 c 0.33992,-0.55 0.16804,-1 -0.38196,-1 -0.55,0 -1.27812,0.45 -1.61804,1 -0.33991,0.55 -0.16803,1 0.38197,1 0.55,0 1.27812,-0.45 1.61803,-1 z m -24.500001,-2 c 0,-0.55 -0.45,-1 -1,-1 -0.55,0 -1,0.45 -1,1 0,0.55 0.45,1 1,1 0.55,0 1,-0.45 1,-1 z m 162.500001,-1 c -0.33991,-0.55 -1.06803,-1 -1.61803,-1 -0.55,0 -0.72188,0.45 -0.38197,1 0.33992,0.55 1.06804,1 1.61804,1 0.55,0 0.72188,-0.45 0.38196,-1 z m -19.073,-2.47853 c -2.29534,-1.73654 -3.427,-1.89809 -3.427,-0.48925 0,1.0637 4.16575,3.0429 4.927,2.34089 0.23485,-0.21658 -0.44015,-1.04982 -1.5,-1.85164 z m -118.927,0.47853 c -0.33991,-0.55 -1.06803,-1 -1.61803,-1 -0.55,0 -0.72188,0.45 -0.38197,1 0.33992,0.55 1.06804,1 1.61804,1 0.55,0 0.72188,-0.45 0.38196,-1 z m 141.47104,0.0391 c 0.80908,-0.51167 1.21098,-1.19038 0.89313,-1.50823 -0.78775,-0.78775 -3.86417,0.46709 -3.86417,1.57616 0,1.13978 1.10118,1.11461 2.97104,-0.0679 z m -121.03056,-4.3111 c -0.24226,-0.17581 -2.01548,-0.0374 -3.94048,0.30757 -3.48189,0.62399 -3.48706,0.63276 -1,1.69655 1.91236,0.81796 2.8386,0.74567 3.94048,-0.30757 0.79226,-0.75729 1.24226,-1.52074 1,-1.69655 z m -21.68583,0.8766 c 1.55394,-1.1795 1.29658,-1.33183 -2.25,-1.33183 -3.822501,0 -4.797001,0.60158 -3.337981,2.0606 1.06005,1.06005 3.681731,0.71813 5.587981,-0.72877 z m 106.47452,0.79127 c -0.33229,-0.33229 -1.19479,-0.36782 -1.91667,-0.0789 -0.79773,0.31923 -0.56077,0.55619 0.60417,0.60417 1.05417,0.0434 1.64479,-0.19293 1.3125,-0.52522 z m -70.27019,-1.32946 c 0.31736,-0.5135 -0.76559,-0.89546 -2.40655,-0.8488 -1.64096,0.0467 -2.7475,0.46679 -2.45898,0.93363 0.70556,1.14162 4.1446,1.08166 4.86553,-0.0848 z m 48.95924,-52.67336 c 1.82739,-0.70124 2.09506,-2.95776 0.46998,-3.96211 -1.17339,-0.7252 -2.84703,1.20838 -2.87288,3.3191 -0.0174,1.42384 0.20969,1.48462 2.4029,0.64301 z m -41.81335,158.00167 c -40.21652,-7.263 -78.763391,-34.91254 -98.444441,-70.61386 -8.02445,-14.55631 -14.92523,-35.25309 -16.7118,-50.12198 l -0.70185,-5.84115 2.91685,1.50836 c 2.64364,1.36708 3.07856,2.35195 4.64337,10.51486 11.21005,58.47774 59.88567,103.74301 118.693001,110.37706 1.89689,0.21399 2.57634,0.94546 2.81643,3.03203 0.28083,2.4407 -3.5e-4,2.7399 -2.5,2.66026 -1.54904,-0.0494 -6.36924,-0.73136 -10.71156,-1.51558 z m 39.15243,-0.9054 c 0.29582,-1.5475 1.29765,-2.67092 2.61133,-2.92829 1.17226,-0.22965 6.13625,-1.16126 11.03109,-2.07024 34.59738,-6.42476 66.94608,-28.14319 87.17329,-58.52683 10.17241,-15.28014 17.69607,-33.38264 20.36848,-49.0081 1.7538,-10.25439 1.87047,-10.54911 4.68348,-11.83081 l 2.67292,-1.21786 -0.6019,6.44556 c -0.82727,8.85907 -4.09735,21.21787 -8.81144,33.3016 -12.14383,31.12856 -37.66296,58.78865 -68.38455,74.12176 -14.32798,7.15109 -38.32943,14.22393 -48.26841,14.22393 -2.61533,0 -2.89918,-0.28803 -2.47429,-2.51072 z M 30.543619,154.12738 c 1.13784,-12.2427 5.99589,-29.94175 11.62764,-42.36232 16.45645,-36.29391 47.89574,-64.723343 85.362621,-77.190373 10.91584,-3.632226 26.16114,-6.825597 30.14823,-6.315027 2.26016,0.289427 2.35661,0.51087 1.2136,2.786433 -1.0469,2.084245 -2.41295,2.668129 -8.70836,3.722192 -41.33564,6.920974 -77.514621,32.704875 -98.034811,69.867075 -7.67691,13.90294 -13.92565,33.29256 -15.55474,48.26589 -0.59474,5.46632 -1.01864,6.45273 -3.1156,7.25 -1.33496,0.50755 -2.68753,0.92282 -3.00571,0.92282 -0.31817,0 -0.28796,-3.12601 0.0671,-6.94669 z m 279.500251,5.27829 c -1.16743,-0.31039 -1.83636,-2.08144 -2.31683,-6.134 -1.68566,-14.21772 -7.16633,-32.50454 -13.59723,-45.36855 C 286.17511,91.99098 271.09943,73.543831 256.66075,62.054624 239.44068,48.3522 212.92509,36.854938 192.67177,34.308754 c -5.33115,-0.670216 -5.91099,-0.985664 -6.60829,-3.595077 l -0.76437,-2.860398 6.69304,0.710456 c 15.13837,1.606912 36.51047,8.883076 50.92968,17.339088 39.4624,23.142364 65.35754,63.232347 70.67796,109.421247 0.56002,4.86179 0.3378,5.11686 -3.55592,4.0816 z"
       id="path1" />
  </g>
</svg>
